<?xml version="1.0" standalone="no"?>
<!DOCTYPE svg PUBLIC "-//W3C//DTD SVG 20010904//EN"
 "http://www.w3.org/TR/2001/REC-SVG-20010904/DTD/svg10.dtd">
<svg version="1.0" xmlns="http://www.w3.org/2000/svg"
 width="256.000000pt" height="256.000000pt" viewBox="0 0 256.000000 256.000000"
 preserveAspectRatio="xMidYMid meet">

<g transform="translate(0.000000,256.000000) scale(0.100000,-0.100000)"
fill="#000000" stroke="none">
<path d="M0 1280 l0 -1280 1280 0 1280 0 0 1280 0 1280 -1280 0 -1280 0 0
-1280z m1455 740 c154 -42 346 -160 330 -201 -3 -9 -41 -29 -83 -44 -364 -131
-666 -394 -843 -735 -37 -71 -83 -177 -112 -262 -10 -28 -24 -21 -67 34 -82
103 -82 94 -5 250 111 224 301 463 468 588 89 67 76 87 -91 139 -70 22 -146
45 -170 51 -79 20 -65 55 46 113 80 42 147 65 222 77 67 11 250 5 305 -10z
m-625 -326 c73 -20 79 -42 24 -95 -55 -53 -131 -160 -179 -252 -42 -82 -95
-230 -95 -268 0 -24 -27 -25 -34 -1 -12 39 -26 151 -26 208 0 149 68 361 134
417 25 21 80 18 176 -9z m1110 -79 c45 -23 80 -139 87 -285 7 -142 4 -145
-112 -155 -309 -25 -548 -103 -765 -247 -106 -71 -155 -111 -237 -196 -80 -82
-89 -78 -44 21 156 340 467 653 789 792 58 25 215 78 250 84 2 1 16 -6 32 -14z
m20 -654 c0 -48 -107 -191 -198 -266 -121 -100 -269 -159 -428 -171 -142 -11
-354 34 -354 75 0 33 203 171 350 239 175 80 410 138 573 141 50 1 57 -1 57
-18z"/>
</g>
</svg>
    